<?xml version="1.0" encoding="UTF-8" standalone="no"?>
<svg
   xmlns:dc="http://purl.org/dc/elements/1.1/"
   xmlns:cc="http://creativecommons.org/ns#"
   xmlns:rdf="http://www.w3.org/1999/02/22-rdf-syntax-ns#"
   xmlns:svg="http://www.w3.org/2000/svg"
   xmlns="http://www.w3.org/2000/svg"
   viewBox="0 0 908 341.33334"
   height="341.33334"
   width="908"
   id="svg3613"
   version="1.1">
  <metadata
     id="metadata3619">
    <rdf:RDF>
      <cc:Work
         rdf:about="">
        <dc:format>image/svg+xml</dc:format>
        <dc:type
           rdf:resource="http://purl.org/dc/dcmitype/StillImage" />
        <dc:title></dc:title>
      </cc:Work>
    </rdf:RDF>
  </metadata>
  <defs
     id="defs3617" />
  <path
     id="path4166"
     d="m 716.46732,341.03545 c -3.80853,-1.10326 -4.24447,-1.78378 -4.68415,-7.31212 -0.65866,-8.28169 0.0561,-8.97308 6.81207,-6.58942 9.26976,3.27056 16.02304,2.6633 21.61168,-1.94332 3.20344,-2.64055 5.03665,-5.42912 5.47836,-8.33334 0.9298,-6.1133 0.20423,-6.63164 -5.10713,-3.64842 -5.77195,3.2419 -15.51544,3.33424 -21.91148,0.20764 -7.39214,-3.61351 -11.93006,-13.20595 -11.96886,-25.30019 -0.0453,-14.13514 4.9467,-23.87498 14.90264,-29.07623 4.8278,-2.52216 16.354,-2.40909 20.33519,0.19948 2.88804,1.89232 3.28397,1.886 4.37853,-0.0699 0.95304,-1.70299 2.9872,-2.06644 9.77794,-1.74711 l 8.57456,0.4032 -0.0549,30.66668 c -0.0612,34.16415 -0.48834,36.26048 -9.10505,44.68555 -2.58356,2.52609 -7.57948,5.60876 -11.10203,6.85034 -6.93862,2.44564 -21.19712,2.95966 -27.93732,1.00712 z m 25.90027,-41.55798 c 3.25332,-3.46302 5.00552,-12.13467 3.77609,-18.68806 -1.86704,-9.95218 -10.67216,-13.40486 -17.2952,-6.78183 -3.10028,3.10028 -3.51515,4.57226 -3.51515,12.47198 0,7.65941 0.47362,9.46785 3.26967,12.48485 4.11688,4.44218 9.87184,4.6567 13.76459,0.51306 z M 28,322.07439 C 20.868741,319.81405 11.44273,309.65057 9.5662585,302.19843 7.5435265,294.16543 7.3256955,37.639948 9.3354625,30.405278 11.13128,23.940778 19.350971,14.660198 25.925591,11.673918 31.063295,9.3403082 38.0616,9.2161882 166.07229,9.1883682 l 134.73896,-0.0293 5.95392,3.7758598 c 7.69594,4.88062 12.81286,11.03874 14.55823,17.52059 0.93691,3.47938 1.27608,48.78893 1.03507,138.272712 L 322,301.82575 l -2.96131,5.5377 c -3.63593,6.79926 -10.84078,12.91477 -17.60173,14.9404 C 294.36503,324.42265 34.721263,324.20474 28,322.07437 Z m 238.79839,-66.38964 3.86828,-4.141 v -60.73314 -60.73314 l -3.40119,-4.45919 -3.40119,-4.45919 h -20.99881 c -14.55463,0 -21.48983,-0.49101 -22.59881,-1.6 -1.09384,-1.09384 -1.6,-7.57486 -1.6,-20.486862 0,-17.08839 -0.26315,-19.22138 -2.76344,-22.4 l -2.76344,-3.51314 h -45.70854 -45.70852 l -3.52803,3.26966 c -3.4993,3.24304 -3.52803,3.42548 -3.52803,22.40001 0,13.101372 -0.50425,19.634572 -1.6,20.730332 -1.124,1.124 -8.62552,1.6 -25.214811,1.6 h -23.61481 l -3.489966,4.14759 -3.489967,4.14759 0.371441,61.74602 L 58,252.94632 l 3.232419,3.43972 3.232418,3.43972 h 99.232633 99.23264 z M 80.536037,239.6144 c -0.970005,-1.56951 1.341646,-3.93901 18.824858,-19.29604 C 141.74472,183.08899 150.24829,175.91048 152,175.88176 c 1.1,-0.018 7.7,5.33492 14.66667,11.89545 6.96666,6.56054 13.4253,11.95531 14.35253,11.9884 0.92723,0.0331 9.92723,-7.01366 20,-15.65944 10.07277,-8.64578 24.31413,-20.76681 31.64747,-26.93564 7.33333,-6.16881 13.71625,-11.77186 14.18426,-12.45122 0.468,-0.67935 1.518,-0.82291 2.33334,-0.31902 1.04237,0.64423 1.4824,14.8966 1.4824,48.01532 v 47.09914 l -3,0.80396 c -1.65,0.44218 -39.71459,0.81217 -84.58798,0.82218 -60.41342,0.0135 -81.835745,-0.38269 -82.542653,-1.52649 z M 133.61755,120.04272 c -1.26116,-0.8098 -1.61445,-4.78241 -1.33334,-14.99268 l 0.38246,-13.890952 34.37721,-0.35593 34.37721,-0.35594 -0.37721,15.022612 -0.37721,15.0226 -32.66667,0.326 c -17.96667,0.17931 -33.43877,-0.16976 -34.38245,-0.77571 z m 286.95122,194.00875 c -0.37448,-0.97588 -0.47605,-18.82588 -0.22572,-39.66668 l 0.45515,-37.89236 13.42221,-0.378 13.42222,-0.37802 6.90713,21.04468 c 3.79892,11.57457 7.89933,23.69546 9.11201,26.93528 2.05228,5.48288 2.27347,5.66746 3.19575,2.66667 0.54496,-1.77316 4.56365,-13.72394 8.93041,-26.55728 l 7.93956,-23.33333 13.48951,-0.3802 13.48949,-0.3802 -0.35325,39.71353 L 510,315.15911 h -9.33333 -9.33334 l 0.0339,-25.66667 c 0.0185,-14.11668 -0.2876,-25.66668 -0.68041,-25.66668 -0.39283,0 -4.6436,11.55 -9.44619,25.66668 l -8.73196,25.66667 h -7.79671 -7.7967 l -8.56482,-24.66667 c -4.71065,-13.56668 -9.065,-26.16668 -9.67632,-28.00001 -0.66908,-2.00654 -1.15712,7.94451 -1.2261,25.00001 l -0.11466,28.33333 h -8.04184 c -5.4637,0 -8.26013,-0.56882 -8.72272,-1.7743 z m 107.8293,-0.83839 c -7.99047,-4.87207 -10.60128,-15.19187 -5.91678,-23.38731 2.96662,-5.19002 12.63972,-9.96434 22.18435,-10.94945 7.91585,-0.81698 10.25615,-2.86334 7.32027,-6.40086 -2.10106,-2.53162 -10.69732,-2.54747 -18.97718,-0.0351 l -6.3246,1.91916 -0.86693,-3.45417 c -1.6044,-6.3924 0.84949,-9.95478 8.1828,-11.87919 13.78012,-3.61619 26.0028,-1.71242 32.20659,5.01641 4.74656,5.1483 5.97284,12.33878 5.53404,32.44977 l -0.4073,18.66667 L 563,315.556 c -7.63841,0.36385 -8.33333,0.16927 -8.33333,-2.33333 0,-3.35778 -0.13254,-3.35918 -6,-0.0636 -6.07092,3.40982 -14.72702,3.43288 -20.2686,0.054 z M 551.397,298.96441 c 1.79832,-1.94042 3.26967,-4.94042 3.26967,-6.66666 0,-2.70915 -0.65058,-3.13864 -4.75432,-3.13864 -9.8584,0 -15.58415,6.13772 -10.48378,11.23809 3.15638,3.15639 8.28426,2.54251 11.96843,-1.43279 z m 33.93633,-11.13864 c 0,-15.40001 -0.005,-28.45001 -0.012,-29.00001 -0.007,-0.55 3.89336,-1.17741 8.66667,-1.39425 8.46267,-0.38444 8.67875,-0.31167 8.67875,2.92269 v 3.31695 l 5.66666,-3.23996 c 10.26088,-5.86676 22.38498,-3.62483 27.72064,5.12597 2.31526,3.79712 2.60328,6.80902 2.60771,27.26861 l 0.005,23 h -8.5706 -8.57062 l -0.42938,-19.86422 c -0.37386,-17.29489 -0.75794,-20.22672 -2.96939,-22.66668 -3.73083,-4.11633 -9.34636,-3.64329 -12.70256,1.07005 -2.47415,3.47463 -2.75745,5.80345 -2.75745,22.66668 v 18.79417 H 594 585.33333 Z m 70.84842,26.00408 c -7.70551,-4.24069 -10.34578,-15.04073 -5.94444,-24.31585 2.73484,-5.76324 10.0527,-9.34135 21.56584,-10.54472 8.5392,-0.89252 10.88078,-2.93578 7.37829,-6.43826 -2.53703,-2.53703 -10.17005,-2.6167 -18.23236,-0.1903 -3.37776,1.01656 -6.47312,1.51656 -6.87857,1.11111 -1.43376,-1.43377 -0.7136,-10.65075 0.92949,-11.89603 2.96813,-2.24952 12.47217,-4.39671 19.46104,-4.39671 9.35425,0 16.1508,3.0619 20.53896,9.25295 3.64477,5.14224 3.66667,5.30518 3.66667,27.29344 v 22.12029 h -8.12483 c -7.00349,0 -8.22107,-0.36804 -8.82217,-2.66666 -0.85307,-3.26215 -0.67878,-3.262 -6.02078,-0.005 -5.00428,3.05112 -14.59746,3.38326 -19.51714,0.67574 z m 22.06565,-14.23649 c 1.81364,-1.70383 3.08593,-4.45243 3.08593,-6.66667 0,-3.46964 -0.3983,-3.76758 -5.03665,-3.76758 -6.15995,0 -10.96335,3.12926 -10.96335,7.14226 0,6.46756 7.499,8.37918 12.91407,3.29199 z m 113.08593,13.71236 C 781.28587,308.66851 776,299.73832 776,287.40089 c 0,-8.63141 1.95357,-14.75626 6.56472,-20.58175 10.52581,-13.29781 34.20339,-12.74246 42.91808,1.00662 2.92844,4.62016 5.63189,16.70007 4.63043,20.69023 l -0.8307,3.30978 H 811.9746 c -16.46113,0 -17.30793,0.13143 -17.30793,2.68627 0,1.58748 1.77249,3.79155 4.33333,5.38841 4.40583,2.74735 10.87068,2.9033 22.07971,0.53262 l 4.41305,-0.93336 -0.41305,6.356 c -0.40783,6.27569 -0.48886,6.37857 -6.41304,8.14278 -8.61407,2.56527 -20.95166,2.25256 -27.33334,-0.69277 z m 22,-33.60745 c 0,-3.46919 -5.61141,-9.20584 -9.00485,-9.20584 -4.09409,0 -9.66181,4.74401 -9.66181,8.23241 0,2.12496 1.18593,2.43427 9.33333,2.43427 5.87643,0 9.33333,-0.54107 9.33333,-1.46084 z m 25.9296,34.42484 c -0.35936,-0.93647 -0.49052,-13.98647 -0.29149,-29 l 0.36189,-27.29735 H 848 c 7.97028,0 8.70088,0.24085 9.09239,2.99739 l 0.42573,2.99739 4.36679,-3.33073 c 2.81656,-2.14829 6.09716,-3.33072 9.24094,-3.33072 H 876 v 8.00001 8 h -5.42099 c -11.27449,0 -13.24568,3.99806 -13.24568,26.86563 v 15.80104 h -8.7085 c -5.83503,0 -8.92411,-0.56181 -9.3619,-1.70266 z m -417.6259,-104.5236 c -2.21922,-0.89275 -2.28424,-76.054 -0.0681,-78.72427 1.85002,-2.22912 28.85899,-2.33984 38.31527,-0.15707 13.53951,3.12529 20.19911,14.2498 15.49445,25.88267 -1.1622,2.87371 -3.9296,6.49692 -6.14976,8.05159 l -4.03666,2.82665 4.63909,2.73713 c 5.99896,3.53948 9.01873,8.2652 9.77392,15.29546 1.14164,10.62796 -5.26943,19.42824 -17.03321,23.38093 -4.64967,1.56231 -37.4026,2.12792 -40.93498,0.70691 z m 34.49048,-15.19787 C 459.27119,192.16313 460,190.66329 460,186.43237 c 0,-6.79309 -4.3742,-9.91213 -13.9238,-9.92844 l -6.74287,-0.0115 0.0899,4.66666 c 0.0495,2.56667 0.19941,7.21667 0.33333,10.33334 L 440,197.15909 h 6.12751 c 4.05753,0 7.43569,-0.9315 10,-2.75745 z m -3.03524,-33.0142 c 1.99361,-1.53377 3.34934,-4.29559 3.81581,-7.77336 0.65547,-4.88695 0.33451,-5.67135 -3.41225,-8.33928 -2.84575,-2.02636 -5.62207,-2.81561 -8.90071,-2.53032 l -4.76493,0.41461 -0.45576,8.55262 c -0.25068,4.70393 -0.14828,9.35393 0.22754,10.33333 0.99294,2.58752 9.83234,2.15664 13.4903,-0.6576 z m 44.03565,46.21872 c -7.58857,-4.40012 -8.31468,-7.09152 -8.86092,-32.84385 l -0.48921,-23.06346 9.1111,0.39679 9.11111,0.39679 0.37052,19.9361 c 0.40663,21.87904 1.3632,24.73056 8.29615,24.73056 7.26462,0 8.59792,-3.59069 9.33333,-25.13578 l 0.66667,-19.53088 9.02617,-0.39486 9.02617,-0.39484 -0.3595,29.06151 L 542,209.82576 h -8.66667 c -7.86421,0 -8.70465,-0.26657 -9.07688,-2.87903 l -0.41021,-2.87902 -5.58979,3.1963 c -6.98204,3.9924 -14.6199,4.1161 -21.12853,0.34215 z m 60.20541,1.00672 c -4.2333,-1.52097 -4.70556,-2.20936 -5.08552,-7.41304 -0.23036,-3.15501 0.11134,-6.26649 0.75916,-6.91439 0.6818,-0.6818 3.59667,-0.32466 6.91983,0.84782 7.43237,2.62229 13.99833,2.57688 16.69065,-0.11547 2.8311,-2.83109 1.04206,-4.89933 -6.26504,-7.24277 -3.12716,-1.0029 -7.90988,-3.26438 -10.62826,-5.02552 -8.62108,-5.58526 -9.84878,-16.94115 -2.6594,-24.59888 4.25828,-4.5357 10.3281,-6.3078 21.63857,-6.31746 11.21685,-0.009 14.63001,2.16542 14.63001,9.32282 0,2.84846 -0.5867,5.54164 -1.30378,5.98481 -0.71708,0.44319 -4.34291,-0.0968 -8.0574,-1.19981 -4.68143,-1.39024 -7.75874,-1.62346 -10.02955,-0.7601 -4.35111,1.65428 -4.15899,5.01535 0.39073,6.83576 13.24408,5.29916 18.06434,8.43516 19.96783,12.99087 2.59321,6.20644 1.37673,12.95013 -3.19725,17.72436 -6.52936,6.81517 -23.12606,9.7054 -33.77058,5.88097 z m 49.33334,-27.45379 V 151.82576 H 615.33333 624 v 29.33333 29.33334 h -8.66667 -8.66666 z m 31.61194,28.50084 c -0.5199,-0.5199 -0.94528,-13.74528 -0.94528,-29.38973 v -28.44444 h 9.33334 c 8.41928,0 9.33333,0.25907 9.33333,2.64527 0,2.61216 0.0673,2.61018 5.37652,-0.15714 4.27752,-2.22957 7.04344,-2.68182 13.53153,-2.21252 7.06348,0.51094 8.64936,1.14315 11.84834,4.72343 4.58658,5.13328 5.54721,12.00356 4.98716,35.66763 l -0.41022,17.33333 H 682.66667 674 l -0.66667,-20.13451 c -0.44864,-13.54972 -1.22601,-20.80649 -2.37701,-22.18925 -2.95187,-3.54624 -6.81048,-3.67347 -10.67725,-0.35204 -3.55964,3.0576 -3.62214,3.39192 -4.27907,22.88936 l -0.66667,19.78644 -8.05472,0.38972 c -4.43009,0.21435 -8.48009,-0.0356 -9,-0.55555 z m 77.94651,-1.09654 c -11.59745,-3.72236 -16.85807,-12.29122 -16.82415,-27.4043 0.0268,-11.9359 3.4185,-19.22854 11.57026,-24.87773 8.9946,-6.23325 25.37621,-6.02353 33.03741,0.42295 6.02951,5.07349 8.24812,10.40086 8.46547,20.32748 l 0.19256,8.79397 L 735,186.1978 c -11.19055,0.23565 -17.66667,0.8842 -17.66667,1.76923 0,0.76845 1.75384,3.15104 3.89744,5.29462 3.25191,3.25192 4.9634,3.88962 10.33334,3.85019 3.53973,-0.026 7.93589,-0.90472 9.76922,-1.95275 5.90274,-3.3743 6.84354,-2.64682 6.40302,4.95119 -0.38902,6.70973 -0.56511,6.99319 -5.06968,8.16064 -8.08104,2.09435 -20.40292,2.23064 -26.44155,0.29247 z M 736,173.45577 c 0,-8.477 -10.92836,-11.41913 -15.99352,-4.30577 -1.56297,2.19499 -2.46843,4.59499 -2.01211,5.33333 0.45632,0.73834 4.69427,1.34243 9.41766,1.34243 7.34073,0 8.58797,-0.3442 8.58797,-2.36999 z m 28,35.20794 c -4.41661,-1.63718 -4.68827,-2.09892 -5.06968,-8.61724 -0.44625,-7.62646 8.9e-4,-7.92683 7.27533,-4.88738 8.3508,3.48919 17.79435,2.39008 17.79435,-2.07102 0,-1.78014 -2.15941,-3.23975 -7.87755,-5.3247 -4.33265,-1.57976 -9.84913,-4.51824 -12.25885,-6.52996 -3.96669,-3.31154 -4.38835,-4.3609 -4.45577,-11.08921 -0.0615,-6.13489 0.5071,-8.06233 3.25884,-11.04683 4.96362,-5.38349 10.72425,-7.27161 22.18552,-7.27161 12.80969,0 14.71017,1.36201 14.0194,10.04731 -0.47546,5.97804 -0.62443,6.17414 -4.01602,5.28649 -1.93722,-0.50701 -6.36893,-1.22221 -9.84822,-1.58935 -5.0729,-0.53528 -6.49458,-0.22817 -7.17704,1.55032 -1.15928,3.021 0.79718,4.66099 9.01136,7.55371 8.20954,2.89109 13.90493,7.88452 14.9494,13.10685 1.72181,8.60907 -4.61646,18.6031 -13.1244,20.69424 -7.47756,1.83788 -19.95962,1.9332 -24.66667,0.18838 z m 50.66667,0.0868 c -4.27075,-1.4564 -4.7022,-2.08754 -5.08552,-7.43923 -0.53878,-7.52215 0.76554,-8.70691 6.80662,-6.18279 8.70792,3.6384 18.2789,2.17954 18.2789,-2.78617 0,-0.88921 -4.11372,-3.18869 -9.14159,-5.10996 -11.28232,-4.31121 -14.95163,-7.99415 -15.84293,-15.90176 -0.89419,-7.93313 2.97288,-14.4104 10.37044,-17.37031 5.93404,-2.37433 20.56814,-2.8464 25.86061,-0.8342 3.0592,1.16311 3.42013,2.02378 3.42013,8.15544 0,6.80316 -0.0277,6.84842 -3.66666,5.97332 -13.01798,-3.13062 -14.33775,-3.23662 -16.31074,-1.31 -3.00229,2.93176 -0.43488,5.71063 7.9774,8.63444 10.27602,3.57158 14.66667,8.72752 14.66667,17.22306 0,5.72406 -0.59987,7.20105 -4.51451,11.1157 -6.95962,6.95962 -21.7866,9.59462 -32.81882,5.83246 z M 608,139.82576 c -1.46667,-1.46667 -2.66667,-4.16667 -2.66667,-6 0,-8.25045 11.70755,-11.747 18.0606,-5.39394 3.99295,3.99294 4.08966,5.99578 0.5093,10.54746 -3.52571,4.4822 -11.82572,4.92399 -15.90323,0.84648 z m -178.66667,-35.98728 -8.66666,-0.67939 V 63.825748 24.492418 H 443.33333 466 v 7.33333 7.33334 l -13,0.38161 -13,0.38162 v 8.56647 8.56648 l 11.66667,0.38524 11.66666,0.38524 0.39987,7.66667 0.39988,7.66667 H 452.06653 440 v 15.25464 c 0,8.39006 -0.45,15.445782 -1,15.679402 -0.55,0.23361 -4.9,0.11902 -9.66667,-0.25465 z m 79,0.23613 c -3.25336,-0.31368 -4.33333,-1.06136 -4.33333,-3 0,-3.248482 -0.74852,-3.235752 -4.96951,0.0845 -2.49429,1.96201 -5.40904,2.66667 -11.03049,2.66667 -8.40733,0 -13.2186,-2.65124 -16.54619,-9.117732 -2.3402,-4.5477 -1.55693,-13.19021 1.58736,-17.51489 3.47895,-4.78498 13.16436,-9.36739 19.79896,-9.36739 7.29954,0 9.82654,-1.05326 9.82654,-4.09574 0,-5.13331 -8.53358,-6.68644 -18,-3.27604 -8.15008,2.93617 -8.66667,2.70977 -8.66667,-3.79829 0,-3.21021 0.75,-6.44039 1.66667,-7.17819 0.91666,-0.7378 6.01433,-2.10694 11.32813,-3.04254 10.71181,-1.88601 17.68891,-0.666 24.7004,4.3191 6.57445,4.67438 7.74423,9.91574 7.33744,32.8767 l -0.36597,20.656452 -4,0.10261 c -2.2,0.0564 -5.95,-0.0854 -8.33334,-0.3152 z M 497.84715,90.319458 c 3.56226,-1.62308 6.897,-7.96465 5.75422,-10.94268 -0.52304,-1.36299 -2.19098,-1.60428 -6.53393,-0.94518 -3.20739,0.48676 -6.55968,1.33498 -7.44953,1.88494 -2.46647,1.52436 -1.97051,8.50467 0.71542,10.06908 2.99979,1.74722 3.54442,1.74242 7.51382,-0.0662 z M 645.90584,103.6781 c -1.02245,-1.66398 -0.68036,-82.941222 0.35311,-83.891942 0.5909,-0.5436 4.52438,-0.68278 8.74105,-0.30928 l 7.66667,0.67909 v 15.83489 c 0,8.70919 0.40276,15.83489 0.89501,15.83489 0.49225,0 1.85,-0.86425 3.01721,-1.92057 1.16722,-1.05631 4.91692,-2.66804 8.33267,-3.58161 7.58413,-2.02845 15.09709,-0.0229 20.98204,5.60108 5.49251,5.24893 7.18785,11.70297 6.50277,24.75545 -0.50933,9.70395 -1.10946,11.93609 -4.52577,16.83322 -2.16621,3.10517 -6.02328,6.694842 -8.57125,7.977032 -5.6771,2.85683 -16.6196,3.02118 -21.7851,0.32719 -4.6865,-2.444182 -4.84758,-2.447852 -4.84758,-0.11021 0,1.36476 -2.23311,2.00565 -8.13023,2.33333 -4.47163,0.24847 -8.3554,0.0853 -8.6306,-0.36256 z M 677.94715,89.737778 C 681.82812,87.194868 684,81.390168 684,73.560578 c 0,-13.83858 -8.77403,-19.42233 -17.23077,-10.9656 -3.73964,3.73965 -4.10256,4.86923 -4.10256,12.76923 0,7.80117 0.38921,9.05589 3.89744,12.56411 4.41849,4.41849 6.81881,4.80005 11.38304,1.80946 z m 122.71952,14.066702 c -8.6733,-1.8409 -16.98236,-8.372802 -20.10922,-15.808222 -1.03993,-2.4729 -1.89078,-8.65892 -1.89078,-13.74673 0,-8.11801 0.51118,-10.0314 4.17526,-15.62835 8.33,-12.72424 25.59524,-16.7801 41.49008,-9.74663 8.53548,3.77695 13.19472,11.34451 14.0113,22.75724 1.06364,14.86574 -3.77047,24.45251 -14.82338,29.397002 -6.18757,2.768 -16.81057,4.05824 -22.85326,2.77569 z M 815.89769,88.373898 C 819.78627,85.101878 820,84.416688 820,75.222378 c 0,-8.70231 -0.36144,-10.06109 -3.51515,-13.21481 -4.77498,-4.77498 -10.23361,-4.63818 -15.25408,0.38229 -3.4899,3.4899 -3.89744,4.78336 -3.89744,12.36999 0,9.11114 2.08272,13.70186 7.14267,15.7438 4.7622,1.92179 7.13183,1.47993 11.42169,-2.12975 z m 33.94818,15.204462 c -0.81668,-1.32431 -0.79423,-82.582022 0.0231,-83.399302 0.37766,-0.37765 4.16166,-0.68745 8.40887,-0.68844 l 7.7222,-0.002 0.66667,24.5018 0.66666,24.5018 7.10308,-10.66666 c 3.9067,-5.86667 7.95467,-11.14535 8.99551,-11.73041 2.60772,-1.46581 18.25541,-0.57998 18.79035,1.06374 0.23866,0.73333 -3.44786,6.43333 -8.19224,12.66667 -4.74439,6.23333 -8.64203,12.12765 -8.66143,13.09848 -0.0193,0.97084 4.16473,7.93537 9.29807,15.47673 C 899.8,95.942138 904,102.49782 904,102.96895 c 0,0.47113 -4.65,0.85374 -10.33333,0.85024 l -10.33334,-0.006 -8,-12.326972 -8,-12.32697 -0.66666,12.48921 L 866,104.13766 l -7.79523,0.17746 c -4.28737,0.0976 -8.04888,-0.23386 -8.3589,-0.73659 z m -306.82915,-2.37588 c -3.87452,-1.758782 -6.91213,-4.554992 -9.66667,-8.898422 -3.51592,-5.54403 -4.01672,-7.54015 -4.01672,-16.00994 0,-5.32193 0.74767,-11.35446 1.66148,-13.40563 4.96823,-11.15185 18.22942,-18.40391 31.893,-17.44113 9.71107,0.68428 11.77886,2.44513 11.77886,10.03042 0,5.87336 -0.0727,5.97375 -3.66667,5.06269 -10.61636,-2.6912 -13.13435,-2.43396 -18.00097,1.839 -14.00779,12.299 -1.71312,34.65741 15.16494,27.57816 2.65687,-1.11438 5.20687,-1.64993 5.66667,-1.19012 0.45981,0.45981 0.83603,3.45087 0.83603,6.6468 0,5.010652 -0.47095,5.989832 -3.42014,7.111112 -5.95449,2.2639 -21.98289,1.51275 -28.22981,-1.32294 z m 52.07147,0.032 c -15.70252,-7.129182 -18.66571,-33.913282 -5.23548,-47.323392 14.764,-14.74192 38.55314,-9.84026 44.17864,9.10282 2.30342,7.75647 2.55509,14.9587 0.56566,16.18823 -0.77164,0.4769 -8.87164,0.79687 -18,0.71104 C 600.96831,79.766228 600,79.909178 600,82.361328 c 0,1.43232 1.56087,3.83199 3.4686,5.33261 5.07895,3.9951 11.41284,4.76362 18.72529,2.27202 3.45463,-1.17712 6.80714,-2.14021 7.45002,-2.14021 0.64288,0 0.986,2.85 0.76248,6.33334 -0.37944,5.913282 -0.7159,6.438882 -5.07306,7.924742 -7.49168,2.55479 -23.7531,2.09813 -30.24514,-0.84935 z m 23.57848,-33.895582 c 0,-3.20731 -5.42723,-8.84648 -8.51399,-8.84648 -3.10817,0 -10.15268,6.29533 -10.15268,9.07296 0,1.08427 2.98344,1.59371 9.33333,1.59371 6.99763,0 9.33334,-0.45551 9.33334,-1.82019 z m 106.73817,33.486852 c -3.20477,-1.650002 -7.61084,-5.510932 -9.79125,-8.579852 -3.56787,-5.02176 -3.9691,-6.6221 -4.01143,-16.00001 -0.0368,-8.16608 0.58385,-11.64606 2.86945,-16.08736 7.81718,-15.19009 33.49456,-19.55316 47.4372,-8.06046 7.06223,5.82129 9.44466,11.92908 9.31096,23.87035 -0.1032,9.21328 -0.50826,10.69228 -4.42112,16.14083 -6.07366,8.457442 -13.21186,11.716502 -25.66217,11.716502 -7.65625,0 -11.22756,-0.68104 -15.73164,-3 z m 23.52081,-12.217882 c 3.49452,-3.00587 3.74102,-3.892 3.74102,-13.44878 0,-9.55679 -0.2465,-10.44292 -3.74102,-13.44878 -9.57768,-8.23837 -20.68589,0.93198 -19.24856,15.89058 0.52123,5.42461 1.46172,7.46114 4.83931,10.47901 5.14139,4.59383 9.49687,4.75342 14.40925,0.52797 z"
     style="fill:#5c6676;fill-opacity:1;stroke-width:1.33333337" />
</svg>
