<?xml version="1.0" encoding="UTF-8" standalone="no"?>
<svg
   xmlns:dc="http://purl.org/dc/elements/1.1/"
   xmlns:cc="http://creativecommons.org/ns#"
   xmlns:rdf="http://www.w3.org/1999/02/22-rdf-syntax-ns#"
   xmlns:svg="http://www.w3.org/2000/svg"
   xmlns="http://www.w3.org/2000/svg"
   height="179.92627"
   width="961.11005"
   id="svg5060"
   viewBox="0 0 961.11005 179.92627"
   version="1.1">
  <metadata
     id="metadata5066">
    <rdf:RDF>
      <cc:Work
         rdf:about="">
        <dc:format>image/svg+xml</dc:format>
        <dc:type
           rdf:resource="http://purl.org/dc/dcmitype/StillImage" />
        <dc:title></dc:title>
      </cc:Work>
    </rdf:RDF>
  </metadata>
  <defs
     id="defs5064">
    <clipPath
       id="clipPath5993"
       clipPathUnits="userSpaceOnUse">
      <path
         style="fill:none;stroke:#000000;stroke-width:4.20115376"
         id="path5995"
         d="M 498.3526,496.78592 A 89.048498,88.998422 0 0 1 619.99021,529.36171 89.048498,88.998422 0 0 1 587.39609,650.93092 89.048498,88.998422 0 0 1 465.75848,618.35513 89.048498,88.998422 0 0 1 498.3526,496.78592 Z" />
    </clipPath>
    <filter
       id="filter6270"
       style="color-interpolation-filters:sRGB">
      <feMorphology
         id="feMorphology6256"
         result="result91"
         in="SourceAlpha"
         radius="4.3" />
      <feComposite
         id="feComposite6258"
         in2="result91"
         in="SourceGraphic"
         operator="out" />
      <feGaussianBlur
         id="feGaussianBlur6260"
         stdDeviation="1.2"
         result="result0" />
      <feDiffuseLighting
         id="feDiffuseLighting6264"
         diffuseConstant="1">
        <feDistantLight
           id="feDistantLight6262"
           azimuth="225"
           elevation="66" />
      </feDiffuseLighting>
      <feBlend
         id="feBlend6266"
         in2="SourceGraphic"
         mode="multiply" />
      <feComposite
         id="feComposite6268"
         in2="SourceAlpha"
         operator="in" />
    </filter>
  </defs>
  <g
     transform="translate(-453.83039,-484.86454)"
     style="stroke:#ffffff;stroke-opacity:1"
     clip-path="url(#clipPath5993)"
     id="g5935">
    <path
       style="fill:none;stroke:#ffffff;stroke-width:4.19999981;stroke-opacity:1"
       id="path4946"
       d="M 509.2,451.86 A 88.999,88.999 0 0 1 541.776,573.43 88.999,88.999 0 0 1 420.206,606.006 88.999,88.999 0 0 1 387.63,484.436 88.999,88.999 0 0 1 509.2,451.86 Z" />
    <path
       style="fill:none;stroke:#ffffff;stroke-width:4.19999981;stroke-opacity:1"
       id="path4948"
       d="M 664.47,541.5 A 88.999,88.999 0 0 0 542.9,574.076 88.999,88.999 0 0 0 575.476,695.646 88.999,88.999 0 0 0 697.046,663.07 88.999,88.999 0 0 0 664.47,541.5 Z" />
    <path
       style="fill:none;stroke:#ffffff;stroke-width:4.19999981;stroke-opacity:1"
       id="path4950"
       d="M 420.2,541.5 A 88.999,88.999 0 0 1 541.77,574.076 88.999,88.999 0 0 1 509.194,695.646 88.999,88.999 0 0 1 387.624,663.07 88.999,88.999 0 0 1 420.2,541.5 Z" />
    <path
       style="fill:none;stroke:#ffffff;stroke-width:4.19999981;stroke-opacity:1"
       id="path4952"
       d="M 575.47,451.86 A 88.999,88.999 0 0 0 542.894,573.43 88.999,88.999 0 0 0 664.464,606.006 88.999,88.999 0 0 0 697.04,484.436 88.999,88.999 0 0 0 575.47,451.86 Z" />
    <path
       style="fill:none;stroke:#ffffff;stroke-width:4.19999981;stroke-opacity:1"
       id="path4954"
       d="M 509.52,629.86 A 88.999,88.999 0 0 1 542.096,751.43 88.999,88.999 0 0 1 420.526,784.006 88.999,88.999 0 0 1 387.95,662.436 88.999,88.999 0 0 1 509.52,629.86 Z" />
    <path
       style="fill:none;stroke:#ffffff;stroke-width:4.19999981;stroke-opacity:1"
       id="path4956"
       d="m 631.66,662.11 a 88.999,88.999 0 0 1 -88.999,88.998 88.999,88.999 0 0 1 -88.998,-88.999 88.999,88.999 0 0 1 88.999,-88.999 88.999,88.999 0 0 1 88.999,88.999 z" />
    <path
       style="fill:none;stroke:#ffffff;stroke-width:4.19999981;stroke-opacity:1"
       id="path4960"
       d="M 575.79,629.86 A 88.999,88.999 0 0 0 543.214,751.43 88.999,88.999 0 0 0 664.784,784.006 88.999,88.999 0 0 0 697.36,662.436 88.999,88.999 0 0 0 575.79,629.86 Z" />
    <path
       style="fill:none;stroke:#ffffff;stroke-width:4.19999981;stroke-opacity:1"
       id="path4962"
       d="M 664.79,362.22 A 88.999,88.999 0 0 0 543.22,394.796 88.999,88.999 0 0 0 575.796,516.366 88.999,88.999 0 0 0 697.366,483.79 88.999,88.999 0 0 0 664.79,362.22 Z" />
    <path
       style="fill:none;stroke:#ffffff;stroke-width:4.19999981;stroke-opacity:1"
       id="path4964"
       d="m 631.66,484.12 a 88.999,88.999 0 0 0 -88.999,-88.999 88.999,88.999 0 0 0 -88.999,88.999 88.999,88.999 0 0 0 88.999,88.999 88.999,88.999 0 0 0 88.999,-88.999 z" />
    <path
       style="fill:none;stroke:#ffffff;stroke-width:4.19999981;stroke-opacity:1"
       id="path4968"
       d="M 420.52,362.22 A 88.999,88.999 0 0 1 542.09,394.796 88.999,88.999 0 0 1 509.514,516.366 88.999,88.999 0 0 1 387.944,483.79 88.999,88.999 0 0 1 420.52,362.22 Z" />
    <path
       style="fill:none;stroke:#ffffff;stroke-width:4.19999981;stroke-opacity:1"
       id="path4970"
       d="m 477.03,573.02 a 88.999,88.999 0 0 1 -88.999,88.999 88.999,88.999 0 0 1 -88.999,-88.999 88.999,88.999 0 0 1 88.999,-88.998 88.999,88.999 0 0 1 88.999,88.998 z" />
    <path
       style="fill:none;stroke:#ffffff;stroke-width:4.19999981;stroke-opacity:1"
       id="path4984"
       d="m 786.44,573.66 a 88.999,88.999 0 0 0 -88.999,-88.999 88.999,88.999 0 0 0 -88.999,88.999 88.999,88.999 0 0 0 88.999,88.999 88.999,88.999 0 0 0 88.999,-88.999 z" />
  </g>
  <path
     id="path6159"
     d="M 75.15783,156.99837 C 65.00622,146.72248 50.95232,138.52539 36.24745,134.30348 c -1.92668,-0.55316 -3.45689,-1.14766 -3.40046,-1.32111 0.0564,-0.17344 1.63281,-0.76156 3.50306,-1.30694 14.86243,-4.33398 27.40374,-11.66023 38.36122,-22.40945 2.2219,-2.17968 4.13084,-3.87203 4.24208,-3.76078 0.11125,0.11125 -0.19444,1.63711 -0.6793,3.39079 -4.24289,15.346 -4.50561,30.82317 -0.78649,46.33403 0.47415,1.9775 0.97201,3.8786 1.10635,4.22466 0.47992,1.2363 -0.43248,0.58406 -3.43608,-2.45631 z"
     style="fill:#ffffff;fill-opacity:1;stroke:#ffffff;stroke-width:6;stroke-linecap:round;stroke-linejoin:round;stroke-miterlimit:1.79999995;stroke-dasharray:none;stroke-dashoffset:0;stroke-opacity:1;paint-order:normal" />
  <path
     id="path6161"
     d="m 98.32385,159.994 c 0.7236,-2.53384 2.05944,-8.41354 2.51189,-11.05603 2.28817,-13.36404 1.29496,-29.62771 -2.53199,-41.46095 -0.30792,-0.95213 -0.46316,-1.82784 -0.34497,-1.94603 0.11819,-0.11819 1.95488,1.47376 4.08153,3.53767 11.54265,11.20212 23.81348,18.32831 39.22562,22.77996 2.30508,0.6658 3.94835,1.29704 3.65173,1.40276 -0.29663,0.10572 -2.26366,0.68562 -4.37117,1.28867 -13.91311,3.98112 -27.90073,12.2698 -38.49138,22.80894 -1.90898,1.8997 -3.58143,3.45399 -3.71657,3.45399 -0.13514,0 -0.14175,-0.36404 -0.0147,-0.80898 z"
     style="fill:#ffffff;fill-opacity:1;stroke:#ffffff;stroke-width:6;stroke-linecap:round;stroke-linejoin:round;stroke-miterlimit:1.79999995;stroke-dasharray:none;stroke-dashoffset:0;stroke-opacity:1;paint-order:normal" />
  <path
     id="path6163"
     d="m 153.71301,112.95211 c -10.06848,-10.32126 -24.11726,-18.72256 -38.62489,-23.09805 -2.26711,-0.68375 -4.16412,-1.38177 -4.21558,-1.55115 -0.0515,-0.16938 2.77421,-1.2393 6.27928,-2.37761 13.35556,-4.33736 24.91199,-11.2409 34.69233,-20.72439 2.32644,-2.25583 4.3199,-4.0115 4.42991,-3.90149 0.11002,0.11002 -0.12783,1.30765 -0.52854,2.6614 -1.10145,3.72115 -2.47772,10.96145 -2.94673,15.5022 -0.54521,5.27858 -0.23658,18.09088 0.5563,23.09354 0.50898,3.21135 1.8844,9.44215 2.55963,11.59535 0.33688,1.07425 -0.34677,0.7017 -2.20171,-1.1998 z"
     style="fill:#ffffff;fill-opacity:1;stroke:#ffffff;stroke-width:6;stroke-linecap:round;stroke-linejoin:round;stroke-miterlimit:1.79999995;stroke-dasharray:none;stroke-dashoffset:0;stroke-opacity:1;paint-order:normal" />
  <path
     id="path6165"
     d="m 97.96857,71.54573 c 5.2437,-18.02904 5.49905,-34.8709 0.78909,-52.04426 -0.67793,-2.47188 -1.19383,-4.5348 -1.14642,-4.58427 0.0474,-0.0495 2.09557,1.89208 4.55149,4.31455 7.3141,7.21449 15.08096,12.71586 24.23832,17.16833 6.18734,3.0084 10.82553,4.73916 16.82143,6.27699 2.52829,0.64845 4.67308,1.2552 4.7662,1.34832 0.0931,0.0931 -0.762,0.37593 -1.90028,0.62845 -16.58416,3.67905 -32.99844,12.75143 -44.84713,24.78756 -2.98168,3.02886 -3.67039,3.4717 -3.2727,2.10433 z"
     style="fill:#ffffff;fill-opacity:1;stroke:#ffffff;stroke-width:6;stroke-linecap:round;stroke-linejoin:round;stroke-miterlimit:1.79999995;stroke-dasharray:none;stroke-dashoffset:0;stroke-opacity:1;paint-order:normal" />
  <path
     id="path6167"
     d="M 75.33804,69.08962 C 64.50382,58.13234 49.67998,49.57587 34.72182,45.64551 c -2.5522,-0.6706 -4.68685,-1.36675 -4.74369,-1.54699 -0.0568,-0.18024 1.79511,-0.78802 4.11543,-1.35062 14.62587,-3.54633 28.94746,-11.60817 41.0294,-23.09609 2.01421,-1.91519 3.72885,-3.41551 3.81031,-3.33405 0.0815,0.0815 -0.33025,1.92323 -0.91491,4.09284 -4.4721,16.59555 -4.16583,32.93457 0.95851,51.13513 0.12527,0.44494 0.0842,0.80898 -0.0913,0.80898 -0.1755,0 -1.77188,-1.46929 -3.54751,-3.26509 z"
     style="fill:#ffffff;fill-opacity:1;stroke:#ffffff;stroke-width:6;stroke-linecap:round;stroke-linejoin:round;stroke-miterlimit:1.79999995;stroke-dasharray:none;stroke-dashoffset:0;stroke-opacity:1;paint-order:normal" />
  <path
     id="path6169"
     d="m 21.73717,114.15191 c 2.92506,-9.57651 4.30762,-22.64363 3.47129,-32.80856 -0.453,-5.50581 -1.68957,-12.88086 -2.86265,-17.07325 -0.38653,-1.38141 -0.6357,-2.57875 -0.55369,-2.66075 0.082,-0.082 1.97195,1.6148 4.19987,3.77068 9.47798,9.17147 21.1419,16.15619 34.15124,20.45083 3.306,1.09138 6.33012,1.98432 6.72027,1.98432 1.29726,0 1.12559,0.63643 -0.24009,0.89006 -3.6951,0.68624 -12.56975,4.006 -18.24381,6.82451 -9.01746,4.4793 -15.71987,9.14416 -22.77077,15.8484 -1.9684,1.87163 -3.68803,3.40296 -3.82138,3.40296 -0.13336,0 -0.15598,-0.28314 -0.0503,-0.6292 z"
     style="fill:#ffffff;fill-opacity:1;stroke:#ffffff;stroke-width:6;stroke-linecap:round;stroke-linejoin:round;stroke-miterlimit:1.79999995;stroke-dasharray:none;stroke-dashoffset:0;stroke-opacity:1;paint-order:normal" />
  <flowRoot
     transform="matrix(2.0467172,0,0,2.0467172,-121.6714,-911.48192)"
     style="font-style:normal;font-variant:normal;font-weight:normal;font-stretch:normal;font-size:40px;line-height:1.25;font-family:'URW Bookman L';-inkscape-font-specification:'URW Bookman L';letter-spacing:0px;word-spacing:0px;fill:#000000;fill-opacity:1;stroke:none;filter:url(#filter6270)"
     id="flowRoot6246"
     xml:space="preserve"><flowRegion
       style="font-style:normal;font-variant:normal;font-weight:normal;font-stretch:normal;font-family:'URW Bookman L';-inkscape-font-specification:'URW Bookman L'"
       id="flowRegion6248"><rect
         style="font-style:normal;font-variant:normal;font-weight:normal;font-stretch:normal;font-family:'URW Bookman L';-inkscape-font-specification:'URW Bookman L'"
         y="481.81671"
         x="66.156433"
         height="178.82155"
         width="552.651"
         id="rect6250" /></flowRegion><flowPara
       style="font-style:normal;font-variant:normal;font-weight:normal;font-stretch:normal;font-size:78.17396545px;line-height:0;font-family:'Tibetan Machine Uni';-inkscape-font-specification:'Tibetan Machine Uni';text-align:center;text-anchor:middle;fill:#0000ce;fill-opacity:1"
       id="flowPara6252" /><flowPara
       style="font-style:normal;font-variant:normal;font-weight:normal;font-stretch:normal;line-height:0;font-family:'Tibetan Machine Uni';-inkscape-font-specification:'Tibetan Machine Uni';text-align:center;text-anchor:middle;fill:#0000ce;fill-opacity:1"
       id="flowPara6254" /></flowRoot>  <flowRoot
     transform="translate(-16.929861,-17.483181)"
     style="font-style:normal;font-weight:normal;font-size:40px;line-height:1.25;font-family:sans-serif;letter-spacing:0px;word-spacing:0px;fill:#000000;fill-opacity:1;stroke:none"
     id="flowRoot2638"
     xml:space="preserve"><flowRegion
       id="flowRegion2640"><rect
         y="-31.50189"
         x="205.6602"
         height="348.04034"
         width="814.01172"
         id="rect2642" /></flowRegion><flowPara
       id="flowPara2644"></flowPara></flowRoot>  <flowRoot
     transform="translate(-16.929861,-17.483181)"
     style="font-style:normal;font-variant:normal;font-weight:normal;font-stretch:normal;font-size:40px;line-height:1.25;font-family:'Tibetan Machine Uni';-inkscape-font-specification:'Tibetan Machine Uni';letter-spacing:0px;word-spacing:0px;fill:#000000;fill-opacity:1;stroke:none"
     id="flowRoot2646"
     xml:space="preserve"><flowRegion
       style="font-style:normal;font-variant:normal;font-weight:normal;font-stretch:normal;font-family:'Tibetan Machine Uni';-inkscape-font-specification:'Tibetan Machine Uni'"
       id="flowRegion2648"><rect
         style="font-style:normal;font-variant:normal;font-weight:normal;font-stretch:normal;font-family:'Tibetan Machine Uni';-inkscape-font-specification:'Tibetan Machine Uni'"
         y="-45.883724"
         x="195.59293"
         height="350.91672"
         width="1068.5702"
         id="rect2650" /></flowRegion><flowPara
       id="flowPara2652"></flowPara></flowRoot>  <g
     id="flowRoot2654"
     style="font-style:normal;font-weight:normal;font-size:40px;line-height:1.25;font-family:sans-serif;letter-spacing:0px;word-spacing:0px;fill:#000000;fill-opacity:1;stroke:none"
     transform="translate(21.901088,96.133299)"
     aria-label="Holmystic">
    <path
       id="path2700"
       style="font-style:normal;font-variant:normal;font-weight:normal;font-stretch:normal;font-size:160px;font-family:'Tibetan Machine Uni';-inkscape-font-specification:'Tibetan Machine Uni';fill:#ffffff"
       d="m 233.89648,-68.082031 v 7.65625 h -2.96875 q -5,0 -7.96875,0.3125 -2.8125,0.15625 -4.375,1.09375 -1.5625,0.78125 -2.03125,2.34375 -0.3125,1.40625 -0.3125,3.90625 v 37.1875 h 54.6875 v -37.1875 q 0,-2.5 -0.46875,-3.90625 -0.3125,-1.5625 -1.875,-2.34375 -1.5625,-0.9375 -4.53125,-1.09375 -2.8125,-0.3125 -7.8125,-0.3125 h -2.1875 v -7.65625 h 52.8125 v 7.65625 h -2.8125 q -5,0 -7.96875,0.3125 -2.96875,0.15625 -4.53125,1.09375 -1.40625,0.78125 -1.875,2.34375 -0.46875,1.40625 -0.46875,3.90625 v 87.5 q 0,2.65625 0.46875,4.21875 0.46875,1.40625 1.875,2.1875 1.5625,0.78125 4.53125,1.09375 2.96875,0.15625 7.96875,0.15625 h 2.8125 v 7.65625 h -53.59375 v -7.65625 h 2.96875 q 5,0 7.8125,-0.15625 2.96875,-0.3125 4.53125,-1.09375 1.5625,-0.78125 1.875,-2.1875 0.46875,-1.5625 0.46875,-4.21875 V -6.6757812 h -54.6875 V 34.730469 q 0,2.65625 0.3125,4.21875 0.46875,1.40625 2.03125,2.1875 1.5625,0.78125 4.375,1.09375 2.96875,0.15625 7.96875,0.15625 h 2.96875 v 7.65625 h -53.59375 v -7.65625 h 2.8125 q 5,0 7.96875,-0.15625 2.96875,-0.3125 4.375,-1.09375 1.5625,-0.78125 2.03125,-2.1875 0.46875,-1.5625 0.46875,-4.21875 v -87.5 q 0,-2.5 -0.46875,-3.90625 -0.46875,-1.5625 -2.03125,-2.34375 -1.40625,-0.9375 -4.375,-1.09375 -2.96875,-0.3125 -7.96875,-0.3125 h -2.8125 v -7.65625 z" />
    <path
       id="path2702"
       style="font-style:normal;font-variant:normal;font-weight:normal;font-stretch:normal;font-size:160px;font-family:'Tibetan Machine Uni';-inkscape-font-specification:'Tibetan Machine Uni';fill:#ffffff"
       d="m 352.95898,-28.550781 q 7.1875,0 13.4375,3.28125 6.40625,3.125 11.09375,8.59375 4.84375,5.46875 7.5,12.8124997 2.8125,7.3437501 2.8125,15.7812503 0,8.4375 -2.8125,15.9375 -2.65625,7.34375 -7.5,12.8125 -4.6875,5.46875 -11.25,8.75 -6.40625,3.125 -13.75,3.125 -7.34375,0 -13.75,-3.125 -6.40625,-3.28125 -11.25,-8.75 -4.84375,-5.46875 -7.65625,-12.8125 -2.65625,-7.34375 -2.65625,-15.78125 0,-8.5937502 2.8125,-15.9375003 2.8125,-7.4999997 7.5,-12.9687497 4.84375,-5.46875 11.40625,-8.59375 6.5625,-3.125 14.0625,-3.125 z m 0,6.875 q -9.375,0 -14.0625,8.59375 -4.53125,8.4374998 -4.53125,25.15625 0,16.25 4.53125,24.84375 4.6875,8.4375 13.59375,8.4375 8.90625,0 13.59375,-8.4375 4.6875,-8.59375 4.6875,-25 0,-16.2500002 -4.6875,-24.84375 -4.53125,-8.75 -13.125,-8.75 z" />
    <path
       id="path2704"
       style="font-style:normal;font-variant:normal;font-weight:normal;font-stretch:normal;font-size:160px;font-family:'Tibetan Machine Uni';-inkscape-font-specification:'Tibetan Machine Uni';fill:#ffffff"
       d="m 396.55273,-68.707031 30.46875,-1.71875 v 106.875 q 0,2.5 0.3125,4.0625 0.46875,1.40625 1.71875,2.34375 1.40625,0.78125 3.75,1.09375 2.5,0.15625 6.5625,0.15625 h 1.09375 v 5.9375 h -42.1875 v -5.9375 h 1.09375 q 3.90625,0 6.25,-0.15625 2.5,-0.3125 3.75,-1.09375 1.25,-0.9375 1.71875,-2.34375 0.46875,-1.5625 0.46875,-4.0625 v -89.84375 q 0,-5.3125 -1.25,-6.71875 -1.25,-1.5625 -5.625,-1.5625 h -8.125 z" />
    <path
       id="path2706"
       style="font-style:normal;font-variant:normal;font-weight:normal;font-stretch:normal;font-size:160px;font-family:'Tibetan Machine Uni';-inkscape-font-specification:'Tibetan Machine Uni';fill:#ffffff"
       d="m 448.89648,-24.332031 29.21875,-1.71875 v 12.34375 q 4.6875,-7.65625 10.3125,-11.25 5.625,-3.59375 13.125,-3.59375 8.4375,0 14.375,4.53125 5.9375,4.375 8.125,11.875 5.3125,-8.75 11.40625,-12.5 6.25,-3.90625 14.21875,-3.90625 5.9375,0 10.78125,2.34375 4.84375,2.34375 8.4375,6.875 1.5625,2.03125 2.5,3.90625 1.09375,1.875 1.71875,4.0625 0.625,2.0312497 0.78125,4.8437498 0.15625,2.6562499 0.15625,6.40624995 V 36.292969 q 0,2.5 0.46875,4.0625 0.46875,1.5625 1.71875,2.34375 1.40625,0.78125 3.75,1.09375 2.5,0.3125 6.40625,0.3125 h 0.78125 v 5.9375 h -41.25 v -5.9375 h 1.25 q 3.59375,0 5.78125,-0.15625 2.34375,-0.3125 3.59375,-1.09375 1.25,-0.9375 1.71875,-2.34375 0.46875,-1.5625 0.46875,-4.0625 V 3.1679688 q 0,-5 -0.46875,-7.96875 -0.3125,-2.96875 -1.40625,-5.6249998 -1.71875,-3.90625 -4.84375,-6.09375 -2.96875,-2.1875 -7.1875,-2.1875 -8.4375,0 -13.59375,7.34375 -5,7.3437498 -5,19.5312498 V 36.449219 q 0,2.5 0.3125,4.0625 0.46875,1.40625 1.71875,2.34375 1.40625,0.78125 3.75,1.09375 2.34375,0.15625 6.40625,0.15625 h 0.625 v 5.9375 h -41.5625 v -5.9375 h 0.78125 q 4.0625,0 6.40625,-0.15625 2.5,-0.3125 3.75,-1.09375 1.40625,-0.9375 1.875,-2.34375 0.46875,-1.5625 0.46875,-4.0625 V 1.4492187 q 0,-10 -3.4375,-14.8437497 -1.40625,-2.1875 -4.53125,-3.75 -2.96875,-1.5625 -6.09375,-1.5625 -4.0625,0 -7.5,2.03125 -3.4375,1.875 -5.9375,5.3125 -2.34375,3.2812497 -3.75,7.9687497 -1.40625,4.6875 -1.40625,10.15625 V 36.292969 q 0,2.5 0.3125,4.0625 0.46875,1.5625 1.71875,2.34375 1.40625,0.78125 3.75,1.09375 2.34375,0.3125 6.40625,0.3125 h 0.625 v 5.9375 h -41.09375 v -5.9375 h 1.40625 q 3.4375,0 5.625,-0.3125 2.34375,-0.3125 3.4375,-1.09375 1.25,-0.78125 1.71875,-2.34375 0.46875,-1.5625 0.46875,-4.0625 V -9.1757813 q 0,-2.6562497 -0.3125,-4.2187497 -0.15625,-1.71875 -0.9375,-2.5 -0.625,-0.9375 -2.03125,-1.25 -1.25,-0.3125 -3.59375,-0.3125 h -6.71875 z" />
    <path
       id="path2708"
       style="font-style:normal;font-variant:normal;font-weight:normal;font-stretch:normal;font-size:160px;font-family:'Tibetan Machine Uni';-inkscape-font-specification:'Tibetan Machine Uni';fill:#ffffff"
       d="m 631.55273,-26.050781 v 5.78125 h -3.4375 q -4.21875,0 -5.9375,0.9375 -1.5625,0.9375 -1.5625,3.125 0,1.09375 0.78125,3.4375 l 18.125,42.1875 14.84375,-37.1875002 q 1.71875,-4.2187498 1.71875,-6.4062498 0,-3.125 -2.1875,-4.53125 -2.03125,-1.5625 -6.71875,-1.5625 h -2.65625 v -5.78125 h 32.65625 v 5.78125 h -0.9375 q -4.53125,0 -7.65625,2.96875 -3.125,2.8125 -6.09375,10.1562498 l -18.4375,46.4062502 q -2.65625,6.71875 -4.84375,11.40625 -2.03125,4.84375 -3.90625,8.4375 -1.71875,3.59375 -3.4375,6.25 -1.5625,2.8125 -3.4375,5.3125 -9.84375,13.125 -22.65625,13.125 -6.40625,0 -10.625,-3.59375 -4.21875,-3.59375 -4.21875,-9.0625 0,-4.53125 2.8125,-7.5 2.8125,-2.8125 7.03125,-2.8125 3.4375,0 5.9375,2.1875 2.5,2.1875 2.5,5.3125 0,0.9375 -0.3125,2.03125 -0.3125,1.25 -1.09375,3.75 0,0.78125 0.78125,1.09375 0.9375,0.46875 2.03125,0.46875 3.90625,0 9.0625,-5.78125 5.15625,-5.78125 9.6875,-15.15625 l 2.8125,-5.625 -26.875,-60.625 q -2.1875,-4.84375 -4.53125,-6.71875 -2.34375,-2.03125 -6.40625,-2.03125 h -1.71875 v -5.78125 z" />
    <path
       id="path2710"
       style="font-style:normal;font-variant:normal;font-weight:normal;font-stretch:normal;font-size:160px;font-family:'Tibetan Machine Uni';-inkscape-font-specification:'Tibetan Machine Uni';fill:#ffffff"
       d="m 742.17773,-27.925781 v 27.34374975 h -5.78125 q -2.03125,-5.62499995 -3.75,-8.59375005 -1.5625,-3.1249997 -4.21875,-5.7812497 -7.03125,-6.5625 -15.9375,-6.5625 -6.875,0 -11.09375,3.28125 -4.0625,3.125 -4.0625,8.125 0,2.6562498 1.40625,4.9999998 1.5625,2.3437499 4.21875,3.59375 0.9375,0.62499995 2.1875,1.09374995 1.40625,0.46875 3.59375,1.09375 2.1875,0.46874995 5.625,1.24999995 3.4375,0.7812501 8.75,1.8750001 3.75,0.7812499 6.25,1.5624999 2.65625,0.625 4.53125,1.5625 2.03125,0.78125 3.4375,1.7187501 1.5625,0.9375 2.96875,2.1875002 6.71875,5.625 6.71875,16.5625 0,5.625 -1.875,10.3125 -1.875,4.6875 -5.46875,7.96875 -3.4375,3.28125 -8.4375,5 -4.84375,1.875 -10.78125,1.875 -12.34375,0 -22.34375,-7.96875 l -5.78125,6.40625 h -5.625 v -30.625 h 6.40625 q 2.96875,12.34375 10,18.75 7.1875,6.25 17.5,6.25 7.34375,0 11.875,-3.59375 4.53125,-3.59375 4.53125,-9.375 0,-5 -3.90625,-7.8125 -3.90625,-2.8125 -13.59375,-5 l -8.75,-2.03125 q -3.75,-0.78125 -6.40625,-1.5625 -2.5,-0.78125 -4.53125,-1.5625 -1.875,-0.9375 -3.4375,-1.875 -1.5625,-1.09375 -2.96875,-2.5 -5.625,-5.1562503 -5.625,-15.0000002 0,-5.3124998 1.71875,-9.5312498 1.71875,-4.375 4.84375,-7.5 3.125,-3.125 7.5,-4.84375 4.375,-1.71875 9.84375,-1.71875 6.09375,0 10.78125,1.5625 4.6875,1.40625 9.21875,5 l 4.6875,-5.9375 z" />
    <path
       id="path2712"
       style="font-style:normal;font-variant:normal;font-weight:normal;font-stretch:normal;font-size:160px;font-family:'Tibetan Machine Uni';-inkscape-font-specification:'Tibetan Machine Uni';fill:#ffffff"
       d="m 785.92773,-58.550781 v 32.5 h 24.0625 v 7.03125 h -24.0625 v 44.53125 q 0,8.90625 1.5625,12.1875 0.78125,2.1875 2.96875,3.59375 2.34375,1.25 5.15625,1.25 12.1875,0 12.65625,-22.1875 h 6.875 q 0.3125,1.25 0.3125,2.1875 0,0.78125 0,1.40625 0,6.875 -2.1875,12.96875 -2.1875,6.09375 -6.40625,10.15625 -2.65625,2.65625 -6.875,4.0625 -4.0625,1.40625 -8.75,1.40625 -14.6875,0 -18.75,-10.625 -0.625,-1.40625 -0.9375,-2.96875 -0.3125,-1.71875 -0.625,-3.90625 -0.15625,-2.1875 -0.3125,-5.15625 0,-3.125 0,-7.34375 v -41.5625 h -13.4375 v -6.5625 q 19.6875,-1.09375 22.03125,-32.96875 z" />
    <path
       id="path2714"
       style="font-style:normal;font-variant:normal;font-weight:normal;font-stretch:normal;font-size:160px;font-family:'Tibetan Machine Uni';-inkscape-font-specification:'Tibetan Machine Uni';fill:#ffffff"
       d="m 851.70898,36.449219 q 0,2.5 0.46875,4.0625 0.46875,1.40625 1.71875,2.34375 1.40625,0.78125 3.75,1.09375 2.5,0.15625 6.5625,0.15625 h 1.09375 v 5.9375 h -42.5 v -5.9375 h 1.25 q 3.90625,0 6.25,-0.15625 2.5,-0.3125 3.75,-1.09375 1.40625,-0.9375 1.71875,-2.34375 0.46875,-1.5625 0.46875,-4.0625 V -9.1757813 q 0,-2.6562497 -0.3125,-4.2187497 -0.15625,-1.71875 -0.9375,-2.5 -0.78125,-0.9375 -2.1875,-1.25 -1.25,-0.3125 -3.59375,-0.3125 h -8.28125 v -6.875 l 30.78125,-1.71875 z m -7.65625,-103.4375 q 3.90625,0 6.5625,2.8125 2.8125,2.8125 2.8125,6.71875 0,4.0625 -2.8125,6.875 -2.65625,2.65625 -6.71875,2.65625 -4.0625,0 -6.71875,-2.8125 -2.5,-2.8125 -2.5,-6.71875 0,-3.90625 2.65625,-6.71875 2.65625,-2.8125 6.71875,-2.8125 z" />
    <path
       id="path2716"
       style="font-style:normal;font-variant:normal;font-weight:normal;font-stretch:normal;font-size:160px;font-family:'Tibetan Machine Uni';-inkscape-font-specification:'Tibetan Machine Uni';fill:#ffffff"
       d="m 939.20898,28.480469 q -2.65625,6.40625 -5.625,11.09375 -2.96875,4.53125 -6.5625,7.5 -3.59375,2.8125 -7.96875,4.0625 -4.375,1.40625 -9.6875,1.40625 -7.65625,0 -14.0625,-2.8125 -6.25,-2.96875 -10.78125,-8.125 -4.53125,-5.15625 -7.03125,-12.34375 -2.5,-7.1875 -2.5,-15.9375 0,-9.2187503 2.65625,-16.8750003 2.8125,-7.6562497 7.65625,-13.1249997 4.84375,-5.625 11.5625,-8.75 6.71875,-3.125 14.6875,-3.125 5.46875,0 10.15625,1.5625 4.6875,1.40625 7.96875,4.0625 3.4375,2.5 5.3125,6.09375 2.03125,3.59375 2.03125,7.6562497 0,5.0000001 -2.8125,8.1250001 -2.65625,2.9687499 -7.03125,2.9687499 -4.375,0 -7.1875,-2.49999995 -2.65625,-2.50000005 -2.65625,-6.56249995 0,-2.1875001 0.46875,-3.7499998 0.625,-1.5625 2.8125,-3.75 0.9375,-1.5625 0.9375,-2.03125 0,-2.03125 -2.8125,-3.4375 -2.65625,-1.5625 -6.40625,-1.5625 -4.53125,0 -8.28125,2.5 -3.75,2.34375 -6.40625,6.71875 -2.65625,4.2187497 -4.0625,10.3124997 -1.40625,6.0937501 -1.40625,13.5937503 0,14.375 5.78125,22.8125 5.78125,8.28125 15.625,8.28125 6.25,0 10.78125,-3.75 4.53125,-3.90625 8.59375,-12.8125 z" />
  </g>
</svg>
