<?xml version="1.0" encoding="UTF-8" standalone="no"?>
<svg
   xmlns:dc="http://purl.org/dc/elements/1.1/"
   xmlns:cc="http://creativecommons.org/ns#"
   xmlns:rdf="http://www.w3.org/1999/02/22-rdf-syntax-ns#"
   xmlns:svg="http://www.w3.org/2000/svg"
   xmlns="http://www.w3.org/2000/svg"
   height="197.69576"
   width="1035.4944"
   id="svg5060"
   viewBox="0 0 1035.4944 197.69576"
   version="1.1">
  <metadata
     id="metadata5066">
    <rdf:RDF>
      <cc:Work
         rdf:about="">
        <dc:format>image/svg+xml</dc:format>
        <dc:type
           rdf:resource="http://purl.org/dc/dcmitype/StillImage" />
        <dc:title></dc:title>
      </cc:Work>
    </rdf:RDF>
  </metadata>
  <defs
     id="defs5064">
    <clipPath
       id="clipPath5993"
       clipPathUnits="userSpaceOnUse">
      <path
         style="fill:none;stroke:#000000;stroke-width:4.20115376"
         id="path5995"
         d="M 498.3526,496.78592 A 89.048498,88.998422 0 0 1 619.99021,529.36171 89.048498,88.998422 0 0 1 587.39609,650.93092 89.048498,88.998422 0 0 1 465.75848,618.35513 89.048498,88.998422 0 0 1 498.3526,496.78592 Z" />
    </clipPath>
    <filter
       id="filter6270"
       style="color-interpolation-filters:sRGB">
      <feMorphology
         id="feMorphology6256"
         result="result91"
         in="SourceAlpha"
         radius="4.3" />
      <feComposite
         id="feComposite6258"
         in2="result91"
         in="SourceGraphic"
         operator="out" />
      <feGaussianBlur
         id="feGaussianBlur6260"
         stdDeviation="1.2"
         result="result0" />
      <feDiffuseLighting
         id="feDiffuseLighting6264"
         diffuseConstant="1">
        <feDistantLight
           id="feDistantLight6262"
           azimuth="225"
           elevation="66" />
      </feDiffuseLighting>
      <feBlend
         id="feBlend6266"
         in2="SourceGraphic"
         mode="multiply" />
      <feComposite
         id="feComposite6268"
         in2="SourceAlpha"
         operator="in" />
    </filter>
    <filter
       id="filter2509"
       style="color-interpolation-filters:sRGB;">
      <feMorphology
         id="feMorphology2495"
         result="result91"
         in="SourceAlpha"
         radius="4.3" />
      <feComposite
         id="feComposite2497"
         in2="result91"
         in="SourceGraphic"
         operator="out" />
      <feGaussianBlur
         id="feGaussianBlur2499"
         stdDeviation="1.2"
         result="result0" />
      <feDiffuseLighting
         id="feDiffuseLighting2503"
         diffuseConstant="1">
        <feDistantLight
           id="feDistantLight2501"
           azimuth="225"
           elevation="66" />
      </feDiffuseLighting>
      <feBlend
         id="feBlend2505"
         in2="SourceGraphic"
         mode="multiply" />
      <feComposite
         id="feComposite2507"
         in2="SourceAlpha"
         operator="in" />
    </filter>
  </defs>
  <g
     style="filter:url(#filter2509)"
     transform="translate(-16.929861,-17.48318)"
     id="g2493">
    <g
       id="g5935"
       clip-path="url(#clipPath5993)"
       style="stroke:#ffffff;stroke-opacity:1"
       transform="translate(-436.90053,-467.38136)">
      <path
         d="M 509.2,451.86 A 88.999,88.999 0 0 1 541.776,573.43 88.999,88.999 0 0 1 420.206,606.006 88.999,88.999 0 0 1 387.63,484.436 88.999,88.999 0 0 1 509.2,451.86 Z"
         id="path4946"
         style="fill:none;stroke:#ffffff;stroke-width:4.19999981;stroke-opacity:1" />
      <path
         d="M 664.47,541.5 A 88.999,88.999 0 0 0 542.9,574.076 88.999,88.999 0 0 0 575.476,695.646 88.999,88.999 0 0 0 697.046,663.07 88.999,88.999 0 0 0 664.47,541.5 Z"
         id="path4948"
         style="fill:none;stroke:#ffffff;stroke-width:4.19999981;stroke-opacity:1" />
      <path
         d="M 420.2,541.5 A 88.999,88.999 0 0 1 541.77,574.076 88.999,88.999 0 0 1 509.194,695.646 88.999,88.999 0 0 1 387.624,663.07 88.999,88.999 0 0 1 420.2,541.5 Z"
         id="path4950"
         style="fill:none;stroke:#ffffff;stroke-width:4.19999981;stroke-opacity:1" />
      <path
         d="M 575.47,451.86 A 88.999,88.999 0 0 0 542.894,573.43 88.999,88.999 0 0 0 664.464,606.006 88.999,88.999 0 0 0 697.04,484.436 88.999,88.999 0 0 0 575.47,451.86 Z"
         id="path4952"
         style="fill:none;stroke:#ffffff;stroke-width:4.19999981;stroke-opacity:1" />
      <path
         d="M 509.52,629.86 A 88.999,88.999 0 0 1 542.096,751.43 88.999,88.999 0 0 1 420.526,784.006 88.999,88.999 0 0 1 387.95,662.436 88.999,88.999 0 0 1 509.52,629.86 Z"
         id="path4954"
         style="fill:none;stroke:#ffffff;stroke-width:4.19999981;stroke-opacity:1" />
      <path
         d="m 631.66,662.11 a 88.999,88.999 0 0 1 -88.999,88.998 88.999,88.999 0 0 1 -88.998,-88.999 88.999,88.999 0 0 1 88.999,-88.999 88.999,88.999 0 0 1 88.999,88.999 z"
         id="path4956"
         style="fill:none;stroke:#ffffff;stroke-width:4.19999981;stroke-opacity:1" />
      <path
         d="M 575.79,629.86 A 88.999,88.999 0 0 0 543.214,751.43 88.999,88.999 0 0 0 664.784,784.006 88.999,88.999 0 0 0 697.36,662.436 88.999,88.999 0 0 0 575.79,629.86 Z"
         id="path4960"
         style="fill:none;stroke:#ffffff;stroke-width:4.19999981;stroke-opacity:1" />
      <path
         d="M 664.79,362.22 A 88.999,88.999 0 0 0 543.22,394.796 88.999,88.999 0 0 0 575.796,516.366 88.999,88.999 0 0 0 697.366,483.79 88.999,88.999 0 0 0 664.79,362.22 Z"
         id="path4962"
         style="fill:none;stroke:#ffffff;stroke-width:4.19999981;stroke-opacity:1" />
      <path
         d="m 631.66,484.12 a 88.999,88.999 0 0 0 -88.999,-88.999 88.999,88.999 0 0 0 -88.999,88.999 88.999,88.999 0 0 0 88.999,88.999 88.999,88.999 0 0 0 88.999,-88.999 z"
         id="path4964"
         style="fill:none;stroke:#ffffff;stroke-width:4.19999981;stroke-opacity:1" />
      <path
         d="M 420.52,362.22 A 88.999,88.999 0 0 1 542.09,394.796 88.999,88.999 0 0 1 509.514,516.366 88.999,88.999 0 0 1 387.944,483.79 88.999,88.999 0 0 1 420.52,362.22 Z"
         id="path4968"
         style="fill:none;stroke:#ffffff;stroke-width:4.19999981;stroke-opacity:1" />
      <path
         d="m 477.03,573.02 a 88.999,88.999 0 0 1 -88.999,88.999 88.999,88.999 0 0 1 -88.999,-88.999 88.999,88.999 0 0 1 88.999,-88.998 88.999,88.999 0 0 1 88.999,88.998 z"
         id="path4970"
         style="fill:none;stroke:#ffffff;stroke-width:4.19999981;stroke-opacity:1" />
      <path
         d="m 786.44,573.66 a 88.999,88.999 0 0 0 -88.999,-88.999 88.999,88.999 0 0 0 -88.999,88.999 88.999,88.999 0 0 0 88.999,88.999 88.999,88.999 0 0 0 88.999,-88.999 z"
         id="path4984"
         style="fill:none;stroke:#ffffff;stroke-width:4.19999981;stroke-opacity:1" />
    </g>
    <path
       style="fill:#ffffff;fill-opacity:1;stroke:#ffffff;stroke-width:6;stroke-linecap:round;stroke-linejoin:round;stroke-miterlimit:1.79999995;stroke-dasharray:none;stroke-dashoffset:0;stroke-opacity:1;paint-order:normal"
       d="M 92.08769,174.48155 C 81.93608,164.20566 67.88218,156.00857 53.17731,151.78666 c -1.92668,-0.55316 -3.45689,-1.14766 -3.40046,-1.32111 0.0564,-0.17344 1.63281,-0.76156 3.50306,-1.30694 14.86243,-4.33398 27.40374,-11.66023 38.36122,-22.40945 2.2219,-2.17968 4.13084,-3.87203 4.24208,-3.76078 0.11125,0.11125 -0.19444,1.63711 -0.6793,3.39079 -4.24289,15.346 -4.50561,30.82317 -0.78649,46.33403 0.47415,1.9775 0.97201,3.8786 1.10635,4.22466 0.47992,1.2363 -0.43248,0.58406 -3.43608,-2.45631 z"
       id="path6159" />
    <path
       style="fill:#ffffff;fill-opacity:1;stroke:#ffffff;stroke-width:6;stroke-linecap:round;stroke-linejoin:round;stroke-miterlimit:1.79999995;stroke-dasharray:none;stroke-dashoffset:0;stroke-opacity:1;paint-order:normal"
       d="m 115.25371,177.47718 c 0.7236,-2.53384 2.05944,-8.41354 2.51189,-11.05603 2.28817,-13.36404 1.29496,-29.62771 -2.53199,-41.46095 -0.30792,-0.95213 -0.46316,-1.82784 -0.34497,-1.94603 0.11819,-0.11819 1.95488,1.47376 4.08153,3.53767 11.54265,11.20212 23.81348,18.32831 39.22562,22.77996 2.30508,0.6658 3.94835,1.29704 3.65173,1.40276 -0.29663,0.10572 -2.26366,0.68562 -4.37117,1.28867 -13.91311,3.98112 -27.90073,12.2698 -38.49138,22.80894 -1.90898,1.8997 -3.58143,3.45399 -3.71657,3.45399 -0.13514,0 -0.14175,-0.36404 -0.0147,-0.80898 z"
       id="path6161" />
    <path
       style="fill:#ffffff;fill-opacity:1;stroke:#ffffff;stroke-width:6;stroke-linecap:round;stroke-linejoin:round;stroke-miterlimit:1.79999995;stroke-dasharray:none;stroke-dashoffset:0;stroke-opacity:1;paint-order:normal"
       d="m 170.64287,130.43529 c -10.06848,-10.32126 -24.11726,-18.72256 -38.62489,-23.09805 -2.26711,-0.68375 -4.16412,-1.38177 -4.21558,-1.55115 -0.0515,-0.16938 2.77421,-1.2393 6.27928,-2.37761 13.35556,-4.337358 24.91199,-11.240898 34.69233,-20.724388 2.32644,-2.25583 4.3199,-4.0115 4.42991,-3.90149 0.11002,0.11002 -0.12783,1.30765 -0.52854,2.6614 -1.10145,3.72115 -2.47772,10.96145 -2.94673,15.5022 -0.54521,5.278578 -0.23658,18.090878 0.5563,23.093538 0.50898,3.21135 1.8844,9.44215 2.55963,11.59535 0.33688,1.07425 -0.34677,0.7017 -2.20171,-1.1998 z"
       id="path6163" />
    <path
       style="fill:#ffffff;fill-opacity:1;stroke:#ffffff;stroke-width:6;stroke-linecap:round;stroke-linejoin:round;stroke-miterlimit:1.79999995;stroke-dasharray:none;stroke-dashoffset:0;stroke-opacity:1;paint-order:normal"
       d="m 114.89843,89.028912 c 5.2437,-18.02904 5.49905,-34.8709 0.78909,-52.04426 -0.67793,-2.47188 -1.19383,-4.5348 -1.14642,-4.58427 0.0474,-0.0495 2.09557,1.89208 4.55149,4.31455 7.3141,7.21449 15.08096,12.71586 24.23832,17.16833 6.18734,3.0084 10.82553,4.73916 16.82143,6.27699 2.52829,0.64845 4.67308,1.2552 4.7662,1.34832 0.0931,0.0931 -0.762,0.37593 -1.90028,0.62845 -16.58416,3.67905 -32.99844,12.75143 -44.84713,24.78756 -2.98168,3.02886 -3.67039,3.4717 -3.2727,2.10433 z"
       id="path6165" />
    <path
       style="fill:#ffffff;fill-opacity:1;stroke:#ffffff;stroke-width:6;stroke-linecap:round;stroke-linejoin:round;stroke-miterlimit:1.79999995;stroke-dasharray:none;stroke-dashoffset:0;stroke-opacity:1;paint-order:normal"
       d="M 92.2679,86.572802 C 81.43368,75.615522 66.60984,67.059052 51.65168,63.128692 c -2.5522,-0.6706 -4.68685,-1.36675 -4.74369,-1.54699 -0.0568,-0.18024 1.79511,-0.78802 4.11543,-1.35062 14.62587,-3.54633 28.94746,-11.60817 41.0294,-23.09609 2.01421,-1.91519 3.72885,-3.41551 3.81031,-3.33405 0.0815,0.0815 -0.33025,1.92323 -0.91491,4.09284 -4.4721,16.59555 -4.16583,32.93457 0.95851,51.13513 0.12527,0.44494 0.0842,0.80898 -0.0913,0.80898 -0.1755,0 -1.77188,-1.46929 -3.54751,-3.26509 z"
       id="path6167" />
    <path
       style="fill:#ffffff;fill-opacity:1;stroke:#ffffff;stroke-width:6;stroke-linecap:round;stroke-linejoin:round;stroke-miterlimit:1.79999995;stroke-dasharray:none;stroke-dashoffset:0;stroke-opacity:1;paint-order:normal"
       d="m 38.66703,131.63509 c 2.92506,-9.57651 4.30762,-22.64363 3.47129,-32.808558 -0.453,-5.50581 -1.68957,-12.88086 -2.86265,-17.07325 -0.38653,-1.38141 -0.6357,-2.57875 -0.55369,-2.66075 0.082,-0.082 1.97195,1.6148 4.19987,3.77068 9.47798,9.17147 21.1419,16.15619 34.15124,20.450828 3.306,1.09138 6.33012,1.98432 6.72027,1.98432 1.29726,0 1.12559,0.63643 -0.24009,0.89006 -3.6951,0.68624 -12.56975,4.006 -18.24381,6.82451 -9.01746,4.4793 -15.71987,9.14416 -22.77077,15.8484 -1.9684,1.87163 -3.68803,3.40296 -3.82138,3.40296 -0.13336,0 -0.15598,-0.28314 -0.0503,-0.6292 z"
       id="path6169" />
  </g>
  <g
     id="flowRoot6246"
     style="font-style:normal;font-variant:normal;font-weight:normal;font-stretch:normal;font-size:40px;line-height:1.25;font-family:'URW Bookman L';-inkscape-font-specification:'URW Bookman L';letter-spacing:0px;word-spacing:0px;fill:#000000;fill-opacity:1;stroke:none;filter:url(#filter6270)"
     transform="matrix(2.0467172,0,0,2.0467172,-121.6714,-911.48192)"
     aria-label="Holmystic
">
    <path
       id="path2455"
       style="font-style:normal;font-variant:normal;font-weight:normal;font-stretch:normal;font-size:78.17396545px;line-height:0;font-family:'Tibetan Machine Uni';-inkscape-font-specification:'Tibetan Machine Uni';text-align:center;text-anchor:middle;fill:#ffffff;fill-opacity:1"
       d="m 183.69058,460.19098 v 3.74074 h -1.4505 q -2.44293,0 -3.89343,0.15269 -1.37415,0.0763 -2.13756,0.53439 -0.76342,0.38171 -0.99245,1.14513 -0.15268,0.68707 -0.15268,1.90854 v 18.16934 h 26.71962 v -18.16934 q 0,-1.22147 -0.22903,-1.90854 -0.15268,-0.76342 -0.9161,-1.14513 -0.76342,-0.45805 -2.21391,-0.53439 -1.37415,-0.15269 -3.81709,-0.15269 h -1.06878 v -3.74074 h 25.80351 v 3.74074 h -1.37415 q -2.44294,0 -3.89343,0.15269 -1.45049,0.0763 -2.21391,0.53439 -0.68708,0.38171 -0.9161,1.14513 -0.22903,0.68707 -0.22903,1.90854 v 42.75139 q 0,1.29781 0.22903,2.06123 0.22902,0.68707 0.9161,1.06878 0.76342,0.38171 2.21391,0.53439 1.45049,0.0763 3.89343,0.0763 h 1.37415 v 3.74075 h -26.18522 v -3.74075 h 1.45049 q 2.44294,0 3.81709,-0.0763 1.45049,-0.15268 2.21391,-0.53439 0.76342,-0.38171 0.9161,-1.06878 0.22903,-0.76342 0.22903,-2.06123 v -20.23057 h -26.71962 v 20.23057 q 0,1.29781 0.15268,2.06123 0.22903,0.68707 0.99245,1.06878 0.76341,0.38171 2.13756,0.53439 1.4505,0.0763 3.89343,0.0763 h 1.4505 v 3.74075 h -26.18523 v -3.74075 h 1.37415 q 2.44294,0 3.89343,-0.0763 1.4505,-0.15268 2.13757,-0.53439 0.76342,-0.38171 0.99245,-1.06878 0.22902,-0.76342 0.22902,-2.06123 v -42.75139 q 0,-1.22147 -0.22902,-1.90854 -0.22903,-0.76342 -0.99245,-1.14513 -0.68707,-0.45805 -2.13757,-0.53439 -1.45049,-0.15269 -3.89343,-0.15269 h -1.37415 v -3.74074 z" />
    <path
       id="path2457"
       style="font-style:normal;font-variant:normal;font-weight:normal;font-stretch:normal;font-size:78.17396545px;line-height:0;font-family:'Tibetan Machine Uni';-inkscape-font-specification:'Tibetan Machine Uni';text-align:center;text-anchor:middle;fill:#ffffff;fill-opacity:1"
       d="m 241.863,479.50544 q 3.51172,0 6.56539,1.60318 3.13001,1.52684 5.42027,4.1988 2.36659,2.67196 3.6644,6.26002 1.37415,3.58807 1.37415,7.71052 0,4.12246 -1.37415,7.78686 -1.29781,3.58806 -3.6644,6.26002 -2.29026,2.67197 -5.49661,4.27514 -3.13001,1.52684 -6.71808,1.52684 -3.58806,0 -6.71807,-1.52684 -3.13001,-1.60317 -5.49661,-4.27514 -2.36659,-2.67196 -3.74074,-6.26002 -1.29781,-3.58806 -1.29781,-7.71052 0,-4.19879 1.37415,-7.78686 1.37415,-3.6644 3.6644,-6.33636 2.3666,-2.67197 5.57295,-4.1988 3.20635,-1.52684 6.87076,-1.52684 z m 0,3.35904 q -4.58051,0 -6.87076,4.1988 -2.21391,4.12245 -2.21391,12.29102 0,7.93955 2.21391,12.13834 2.29025,4.12246 6.64173,4.12246 4.35148,0 6.64174,-4.12246 2.29025,-4.19879 2.29025,-12.21468 0,-7.93954 -2.29025,-12.13834 -2.21391,-4.27514 -6.41271,-4.27514 z" />
    <path
       id="path2459"
       style="font-style:normal;font-variant:normal;font-weight:normal;font-stretch:normal;font-size:78.17396545px;line-height:0;font-family:'Tibetan Machine Uni';-inkscape-font-specification:'Tibetan Machine Uni';text-align:center;text-anchor:middle;fill:#ffffff;fill-opacity:1"
       d="m 263.16235,459.88561 14.88664,-0.83976 v 52.21777 q 0,1.22147 0.15269,1.98488 0.22902,0.68708 0.83976,1.14513 0.68707,0.38171 1.8322,0.53439 1.22147,0.0763 3.20635,0.0763 h 0.53439 v 2.90099 h -20.61227 v -2.90099 h 0.53439 q 1.90855,0 3.05367,-0.0763 1.22147,-0.15268 1.8322,-0.53439 0.61074,-0.45805 0.83976,-1.14513 0.22903,-0.76341 0.22903,-1.98488 V 467.3671 q 0,-2.59562 -0.61074,-3.28269 -0.61073,-0.76342 -2.7483,-0.76342 h -3.96977 z" />
    <path
       id="path2461"
       style="font-style:normal;font-variant:normal;font-weight:normal;font-stretch:normal;font-size:78.17396545px;line-height:0;font-family:'Tibetan Machine Uni';-inkscape-font-specification:'Tibetan Machine Uni';text-align:center;text-anchor:middle;fill:#ffffff;fill-opacity:1"
       d="m 288.73685,481.56667 14.2759,-0.83976 v 6.031 q 2.29026,-3.74075 5.03856,-5.49661 2.7483,-1.75586 6.41271,-1.75586 4.12245,0 7.02344,2.21391 2.90099,2.13757 3.96977,5.80198 2.59562,-4.27514 5.57295,-6.10734 3.05367,-1.90855 6.9471,-1.90855 2.90099,0 5.26758,1.14513 2.3666,1.14513 4.12246,3.35904 0.76342,0.99244 1.22147,1.90854 0.53439,0.9161 0.83976,1.98489 0.30536,0.99244 0.38171,2.36659 0.0763,1.29781 0.0763,3.13001 v 17.78764 q 0,1.22146 0.22902,1.98488 0.22903,0.76342 0.83976,1.14513 0.68708,0.38171 1.8322,0.53439 1.22147,0.15268 3.13002,0.15268 h 0.38171 v 2.90099 h -20.15423 v -2.90099 h 0.61073 q 1.75586,0 2.82465,-0.0763 1.14513,-0.15268 1.75586,-0.53439 0.61073,-0.45805 0.83976,-1.14513 0.22902,-0.76341 0.22902,-1.98488 v -16.2608 q 0,-2.44293 -0.22902,-3.89343 -0.15268,-1.45049 -0.68708,-2.7483 -0.83976,-1.90855 -2.36659,-2.97733 -1.45049,-1.06879 -3.51172,-1.06879 -4.12246,0 -6.64174,3.58807 -2.44293,3.58806 -2.44293,9.54272 v 13.81786 q 0,1.22147 0.15268,1.98488 0.22903,0.68708 0.83976,1.14513 0.68708,0.38171 1.8322,0.53439 1.14513,0.0763 3.13002,0.0763 h 0.30536 v 2.90099 h -20.30691 v -2.90099 h 0.38171 q 1.98489,0 3.13001,-0.0763 1.22147,-0.15268 1.83221,-0.53439 0.68707,-0.45805 0.9161,-1.14513 0.22902,-0.76341 0.22902,-1.98488 V 494.1631 q 0,-4.88587 -1.67952,-7.25247 -0.68707,-1.06878 -2.21391,-1.8322 -1.45049,-0.76342 -2.97733,-0.76342 -1.98488,0 -3.6644,0.99245 -1.67952,0.9161 -2.90099,2.59562 -1.14512,1.60317 -1.8322,3.89343 -0.68708,2.29025 -0.68708,4.96221 v 14.4286 q 0,1.22146 0.15269,1.98488 0.22902,0.76342 0.83976,1.14513 0.68707,0.38171 1.8322,0.53439 1.14513,0.15268 3.13001,0.15268 h 0.30537 v 2.90099 H 289.1949 v -2.90099 h 0.68707 q 1.67952,0 2.74831,-0.15268 1.14512,-0.15268 1.67951,-0.53439 0.61074,-0.38171 0.83976,-1.14513 0.22903,-0.76342 0.22903,-1.98488 v -22.21546 q 0,-1.29781 -0.15268,-2.06123 -0.0764,-0.83975 -0.45806,-1.22146 -0.30536,-0.45805 -0.99244,-0.61074 -0.61073,-0.15268 -1.75586,-0.15268 h -3.28269 z" />
    <path
       id="path2463"
       style="font-style:normal;font-variant:normal;font-weight:normal;font-stretch:normal;font-size:78.17396545px;line-height:0;font-family:'Tibetan Machine Uni';-inkscape-font-specification:'Tibetan Machine Uni';text-align:center;text-anchor:middle;fill:#ffffff;fill-opacity:1"
       d="m 377.98036,480.72691 v 2.82465 h -1.67952 q -2.06123,0 -2.90099,0.45805 -0.76341,0.45805 -0.76341,1.52683 0,0.5344 0.38171,1.67952 l 8.85564,20.61228 7.25247,-18.16934 q 0.83976,-2.06123 0.83976,-3.13001 0,-1.52684 -1.06879,-2.21392 -0.99244,-0.76341 -3.28269,-0.76341 h -1.29781 v -2.82465 h 15.95542 v 2.82465 h -0.45805 q -2.21391,0 -3.74074,1.45049 -1.52684,1.37415 -2.97733,4.96222 l -9.00833,22.6735 q -1.29781,3.28269 -2.36659,5.57295 -0.99245,2.36659 -1.90855,4.12245 -0.83976,1.75586 -1.67952,3.05367 -0.76341,1.37416 -1.67952,2.59562 -4.80953,6.41271 -11.06955,6.41271 -3.13001,0 -5.19124,-1.75586 -2.06123,-1.75586 -2.06123,-4.42782 0,-2.21391 1.37415,-3.66441 1.37415,-1.37415 3.43538,-1.37415 1.67952,0 2.90099,1.06879 1.22147,1.06878 1.22147,2.59562 0,0.45805 -0.15269,0.99244 -0.15268,0.61073 -0.53439,1.8322 0,0.38171 0.38171,0.53439 0.45805,0.22903 0.99244,0.22903 1.90855,0 4.42783,-2.82465 2.51927,-2.82464 4.73319,-7.40515 l 1.37415,-2.7483 -13.13079,-29.6206 q -1.06878,-2.3666 -2.21391,-3.2827 -1.14512,-0.99244 -3.13001,-0.99244 h -0.83976 v -2.82465 z" />
    <path
       id="path2465"
       style="font-style:normal;font-variant:normal;font-weight:normal;font-stretch:normal;font-size:78.17396545px;line-height:0;font-family:'Tibetan Machine Uni';-inkscape-font-specification:'Tibetan Machine Uni';text-align:center;text-anchor:middle;fill:#ffffff;fill-opacity:1"
       d="m 432.03033,479.81081 v 13.35981 h -2.82465 q -0.99244,-2.7483 -1.8322,-4.1988 -0.76342,-1.52683 -2.06123,-2.82464 -3.43538,-3.20636 -7.78686,-3.20636 -3.35904,0 -5.42026,1.60318 -1.98489,1.52684 -1.98489,3.96977 0,1.29781 0.68708,2.44294 0.76341,1.14512 2.06122,1.75586 0.45805,0.30537 1.06879,0.53439 0.68707,0.22903 1.75586,0.53439 1.06878,0.22903 2.7483,0.61074 1.67952,0.38171 4.27514,0.9161 1.8322,0.38171 3.05367,0.76342 1.29781,0.30536 2.21391,0.76341 0.99244,0.38171 1.67952,0.83976 0.76342,0.45805 1.45049,1.06879 3.2827,2.7483 3.2827,8.09222 0,2.74831 -0.9161,5.03856 -0.9161,2.29025 -2.67196,3.89343 -1.67952,1.60318 -4.12246,2.44294 -2.36659,0.9161 -5.26758,0.9161 -6.031,0 -10.91687,-3.89343 l -2.82465,3.13001 h -2.7483 v -14.96298 h 3.13001 q 1.4505,6.03099 4.88587,9.16101 3.51173,3.05367 8.55028,3.05367 3.58806,0 5.80198,-1.75586 2.21391,-1.75586 2.21391,-4.58051 0,-2.44294 -1.90855,-3.81709 -1.90854,-1.37415 -6.64173,-2.44293 l -4.27514,-0.99245 q -1.8322,-0.3817 -3.13001,-0.76341 -1.22147,-0.38171 -2.21391,-0.76342 -0.9161,-0.45805 -1.67952,-0.9161 -0.76342,-0.53439 -1.45049,-1.22147 -2.74831,-2.51928 -2.74831,-7.32881 0,-2.59562 0.83976,-4.65685 0.83976,-2.13757 2.3666,-3.6644 1.52683,-1.52684 3.6644,-2.3666 2.13757,-0.83976 4.80953,-0.83976 2.97733,0 5.26758,0.76342 2.29026,0.68708 4.50417,2.44294 l 2.29025,-2.90099 z" />
    <path
       id="path2467"
       style="font-style:normal;font-variant:normal;font-weight:normal;font-stretch:normal;font-size:78.17396545px;line-height:0;font-family:'Tibetan Machine Uni';-inkscape-font-specification:'Tibetan Machine Uni';text-align:center;text-anchor:middle;fill:#ffffff;fill-opacity:1"
       d="m 453.40603,464.84783 v 15.87908 h 11.75664 v 3.43538 h -11.75664 v 21.7574 q 0,4.35148 0.76342,5.95466 0.38171,1.06879 1.4505,1.75586 1.14512,0.61074 2.51927,0.61074 5.95466,0 6.18369,-10.84053 h 3.35903 q 0.15269,0.61073 0.15269,1.06878 0,0.38171 0,0.68708 0,3.35903 -1.06879,6.33636 -1.06878,2.97733 -3.13001,4.96222 -1.29781,1.29781 -3.35904,1.98488 -1.98488,0.68708 -4.27514,0.68708 -7.17612,0 -9.16101,-5.19124 -0.30536,-0.68708 -0.45805,-1.45049 -0.15268,-0.83976 -0.30537,-1.90855 -0.0763,-1.06878 -0.15268,-2.51928 0,-1.52683 0,-3.58806 v -20.30691 h -6.56539 v -3.20635 q 9.61906,-0.5344 10.76419,-16.10811 z" />
    <path
       id="path2469"
       style="font-style:normal;font-variant:normal;font-weight:normal;font-stretch:normal;font-size:78.17396545px;line-height:0;font-family:'Tibetan Machine Uni';-inkscape-font-specification:'Tibetan Machine Uni';text-align:center;text-anchor:middle;fill:#ffffff;fill-opacity:1"
       d="m 485.54591,511.26362 q 0,1.22147 0.22902,1.98488 0.22903,0.68708 0.83976,1.14513 0.68708,0.38171 1.8322,0.53439 1.22147,0.0763 3.20636,0.0763 h 0.53439 v 2.90099 h -20.76496 v -2.90099 h 0.61074 q 1.90854,0 3.05367,-0.0763 1.22146,-0.15268 1.8322,-0.53439 0.68707,-0.45805 0.83976,-1.14513 0.22902,-0.76341 0.22902,-1.98488 v -22.2918 q 0,-1.29781 -0.15268,-2.06123 -0.0763,-0.83975 -0.45805,-1.22146 -0.38171,-0.45805 -1.06879,-0.61074 -0.61073,-0.15268 -1.75586,-0.15268 h -4.04611 v -3.35904 l 15.03933,-0.83976 z m -3.74075,-50.53825 q 1.90854,0 3.20635,1.37415 1.37416,1.37415 1.37416,3.2827 0,1.98488 -1.37416,3.35904 -1.29781,1.29781 -3.28269,1.29781 -1.98489,0 -3.2827,-1.37416 -1.22146,-1.37415 -1.22146,-3.28269 0,-1.90855 1.29781,-3.2827 1.29781,-1.37415 3.28269,-1.37415 z" />
    <path
       id="path2471"
       style="font-style:normal;font-variant:normal;font-weight:normal;font-stretch:normal;font-size:78.17396545px;line-height:0;font-family:'Tibetan Machine Uni';-inkscape-font-specification:'Tibetan Machine Uni';text-align:center;text-anchor:middle;fill:#ffffff;fill-opacity:1"
       d="m 528.29729,507.37019 q -1.29781,3.13001 -2.7483,5.42026 -1.45049,2.21391 -3.20636,3.66441 -1.75586,1.37415 -3.89343,1.98488 -2.13756,0.68708 -4.73318,0.68708 -3.74075,0 -6.87076,-1.37415 -3.05367,-1.4505 -5.26758,-3.96977 -2.21392,-2.51928 -3.43538,-6.031 -1.22147,-3.51173 -1.22147,-7.78686 0,-4.50417 1.29781,-8.24491 1.37415,-3.74075 3.74074,-6.41271 2.3666,-2.74831 5.64929,-4.27514 3.2827,-1.52684 7.17613,-1.52684 2.67196,0 4.96221,0.76342 2.29026,0.68708 3.89343,1.98489 1.67952,1.22147 2.59562,2.97733 0.99245,1.75586 0.99245,3.74074 0,2.44294 -1.37415,3.96977 -1.29781,1.4505 -3.43538,1.4505 -2.13757,0 -3.51172,-1.22147 -1.29781,-1.22147 -1.29781,-3.20635 0,-1.06879 0.22902,-1.83221 0.30537,-0.76341 1.37415,-1.8322 0.45805,-0.76342 0.45805,-0.99244 0,-0.99245 -1.37415,-1.67952 -1.29781,-0.76342 -3.13001,-0.76342 -2.21391,0 -4.04611,1.22147 -1.83221,1.14513 -3.13002,3.2827 -1.29781,2.06122 -1.98488,5.03855 -0.68708,2.97733 -0.68708,6.64174 0,7.02344 2.82465,11.14589 2.82464,4.04612 7.63417,4.04612 3.05367,0 5.26758,-1.83221 2.21392,-1.90854 4.1988,-6.26002 z" />
  </g>
</svg>
